<?xml version="1.0" encoding="UTF-8"?> <svg xmlns="http://www.w3.org/2000/svg" id="Logo" viewBox="0 0 180.35 61.91"><defs><style>.cls-1{fill:#903486;}.cls-2{fill:#e40521;}.cls-3{fill:#f9b000;}</style></defs><title>Sue-logo</title><path id="e" class="cls-1" d="M188.3,54.32l2.38,1.09a34.69,34.69,0,0,1-2,4.8,17.29,17.29,0,0,1-2.58,3.52,19.36,19.36,0,0,1-7.38,5.39,35.25,35.25,0,0,1-13.83,2.46,42,42,0,0,1-8.44-.78,25,25,0,0,1-6.72-2.31,19.61,19.61,0,0,1-5.39-4,22.58,22.58,0,0,1-4.76-7.34,23.05,23.05,0,0,1-1.65-8.75A22.7,22.7,0,0,1,144.78,32a23.36,23.36,0,0,1,7.5-4.92,24.5,24.5,0,0,1,9.14-1.72h.94V68.81c2,.15,3.47.23,4.33.23q9.85,0,15.75-5.62a19.77,19.77,0,0,0,3.12-3.64A40,40,0,0,0,188.3,54.32Zm3.51-6.18H167.59V25.25a54.09,54.09,0,0,1,5.71.67,16.28,16.28,0,0,1,4.17,1.36,22.36,22.36,0,0,1,7.78,5.2,23.1,23.1,0,0,1,4,5.47,18.64,18.64,0,0,1,2.15,6A39,39,0,0,1,191.81,48.14Z" transform="translate(-11.46 -9.67)"></path><path id="u" class="cls-2" d="M79.09,55.68V26.07h24.5v45.2h-2.74a32.27,32.27,0,0,1-11.52-1.88A18.43,18.43,0,0,1,85,67.11,15,15,0,0,1,81.75,64,13.52,13.52,0,0,1,79.09,55.68Zm29.69,15.59V26.07h24.73v45.2Z" transform="translate(-11.46 -9.67)"></path><path id="S" class="cls-3" d="M32.75,10.06l33,27.07a26.31,26.31,0,0,1,6.72,7.38,16.71,16.71,0,0,1,2.07,8.28A17.51,17.51,0,0,1,71.46,63,18.36,18.36,0,0,1,63,69.67a16.53,16.53,0,0,1-2.54.86,23.61,23.61,0,0,1-3,.5c-1.12.11-2.47.19-4.06.24q-6.33-4.41-9-6.29c-1.78-1.25-3.87-2.76-6.29-4.53q-5.91-4.34-11.41-9a82.63,82.63,0,0,1-8.55-7.93,28.44,28.44,0,0,1-4.46-5.82,20.42,20.42,0,0,1-1.64-4.53,18.55,18.55,0,0,1-.62-4.61,17.61,17.61,0,0,1,3-10.31,18.58,18.58,0,0,1,8.56-6.64,21.5,21.5,0,0,1,4.26-1.17A39.79,39.79,0,0,1,32.75,10.06ZM11.81,71.27V45.53L44.66,71.27ZM71,34.63,40.6,9.67H71Z" transform="translate(-11.46 -9.67)"></path></svg> 